Triage 
http://www.imdb.com/title/tt1217070/


Source  :

Triage 2009 720p BluRay X264 QCF

No subs sorry!


Info :

ID                               : 1
Format                           : AVC
Format/Info                      : Advanced Video Codec
Format profile                   : Baseline@L2.1
Format settings, CABAC           : No
Format settings, ReFrames        : 3 frames
Codec ID                         : avc1
Codec ID/Info                    : Advanced Video Coding
Duration                         : 1h 39mn
Bit rate mode                    : Variable
Bit rate                         : 400 Kbps
Width                            : 480 pixels
Height                           : 272 pixels
Display aspect ratio             : 16:9
Frame rate mode                  : Variable
Frame rate                       : 23.976 fps
Minimum frame rate               : 23.810 fps
Maximum frame rate               : 24.390 fps
Color space                      : YUV
Chroma subsampling               : 4:2:0
Bit depth                        : 8 bits
Scan type                        : Progressive
Bits/(Pixel*Frame)               : 0.128
Stream size                      : 285 MiB (75%)
Writing library                  : x264 core 79

ID                               : 2
Format                           : AAC
Format/Info                      : Advanced Audio Codec
Format version                   : Version 4
Format profile                   : LC
Format settings, SBR             : No
Codec ID                         : 40
Duration                         : 1h 39mn
Bit rate mode                    : Variable
Bit rate                         : 128 Kbps
Maximum bit rate                 : 150 Kbps
Channel(s)                       : 2 channels
Channel positions                : Front: L R
Sampling rate                    : 48.0 KHz
Stream size                      : 91.2 MiB (24%)

Screens : 
http://img340.imageshack.us/img340/9082/vlcsnap00001t.png 
http://img687.imageshack.us/img687/6483/vlcsnap00002di.png 
http://img705.imageshack.us/img705/3010/vlcsnap00003he.png 
http://img408.imageshack.us/img408/2104/vlcsnap00004v.png 
http://img12.imageshack.us/img12/7964/vlcsnap00005y.png 
http://img62.imageshack.us/img62/4520/vlcsnap00006h.png 
http://img194.imageshack.us/img194/7919/vlcsnap00007f.png

PLEASE LET THE TORRENT SEED AND SHARE IT WITH ALL YOU KNOW!

Let me know what I can do to be your trusted source of Handheld videos. 
http://thepiratebay.org/user/on.off.on/ -OOO